<?xml version="1.0" encoding="utf-8"?>
<!-- Generator: Adobe Illustrator 22.0.1, SVG Export Plug-In . SVG Version: 6.00 Build 0)  -->
<svg version="1.1" id="Layer_1" xmlns="http://www.w3.org/2000/svg" xmlns:xlink="http://www.w3.org/1999/xlink" x="0px" y="0px"
	 width="45px" height="45px" viewBox="0 0 45 45" style="enable-background:new 0 0 45 45;" xml:space="preserve">
<style type="text/css">
	.st0{fill:#FFFFFF;}
	.st1{fill:#231815;stroke:#231815;stroke-miterlimit:10;}
</style>
<circle class="st0" cx="22.5" cy="22.5" r="22.5"/>
<g>
	<path class="st1" d="M22.5,28.2c-0.1,1.2-0.6,4-0.7,5.6h-8.9v-0.5c1.7-0.1,1.9-0.8,1.9-3.8V15.3c0-2.8-0.1-3.4-2-3.6v-0.5h5v0.5
		c-1.9,0.2-2,0.8-2,3.6V29c0,3.8,0.5,3.9,2.6,3.9c1.2,0,2.2-0.4,2.7-1.3c0.3-0.6,0.7-1.9,1.1-3.5H22.5z"/>
	<path class="st1" d="M22.4,15.6c-1.4,6.6-2.5,12.2-3.7,18.1h-0.3c-1-6.3-2.3-12.2-3.4-18.5c-0.4-2.7-0.8-3.3-2-3.6v-0.5h4.4v0.5
		c-1.1,0.3-1.5,0.5-1.5,1.5c0,0.3,0,0.6,0.1,1c0.8,5,1.8,10.5,2.8,16h0c1.3-6.5,2.6-12.7,3.8-18.7h0.2c1.1,6,2.3,12,3.5,18.6h0
		c1-5.1,2.6-13.1,2.8-15.6c0-0.4,0.1-0.8,0.1-1.1c0-1.2-0.4-1.4-1.5-1.8v-0.5h4.3v0.5c-1.3,0.4-1.5,0.9-2.1,3.5
		c-0.7,3.3-1.8,8.8-3.7,18.5h-0.3C25.1,27.8,23.3,19.4,22.4,15.6L22.4,15.6z"/>
</g>
</svg>
