<?xml version="1.0" encoding="utf-8"?>
<!-- Generator: Adobe Illustrator 22.0.1, SVG Export Plug-In . SVG Version: 6.00 Build 0)  -->
<svg version="1.1" id="图层_1" xmlns="http://www.w3.org/2000/svg" xmlns:xlink="http://www.w3.org/1999/xlink" x="0px" y="0px" width="150px" height="150px" viewBox="0 0 200 200" style="enable-background:new 0 0 200 200;" xml:space="preserve">
<style type="text/css">
	.st0{fill:#8E3E3C;}
</style>
<path class="st0" d="M156.4,75.9c0,1.3,0,2.3,0,3.6c-0.8,0.5-0.3,1.3-0.5,1.8c-0.8,2.6-1.3,5.4-2.3,7.9c-1,3.6-1.8,7.2-3.1,10.5
	c-1.3,2.8-2.6,5.9-2.6,9c-0.3,3.1-2.1,4.4-4.4,5.4c-1,0.5-2.1,0.3-3.1-0.5c-0.8-0.8-1.3-0.3-1.3,0.5c-0.5,4.1-1.8,7.9-3.6,11.5
	c-1.3,3.1-3.3,5.9-5.4,8.7c-0.8,1-0.8,1.8,0,2.8c1.3,1.5,2.6,3.1,3.3,4.9c0.3,0.5,0.5,0.5,0.8,0.8c1.3,1.3,2.1,2.8,2.1,4.6
	c0,3.1-0.3,6.4,0.5,9.5c0.5,2.1,1.3,4.1,1.8,6.2c0.3,1,0.5,1.8,1.5,2.1c1,0.3,0.8,0.8,0.5,1.5c-0.8,1.8-1.8,3.6-2.8,5.4
	c-1.8,3.3-3.8,6.4-6.9,9c-0.8,0.5-1.3,1.3-2.3,2.1c0.8,0.3,1,0.3,1.3,0.5c1,0.5,2.3,0.8,2.3,2.3c0,1.5-0.5,2.3-2.3,2.8
	c-1.3,0.5-2.8,0.8-4.1,1.3c-4.9,1.5-9.5,3.3-13.8,6.2c-0.5,0.3-1.3,0.8-1.3,1.3c-0.3,1.5-1.3,2.1-2.3,2.6c-0.8,0-1.5,0-2.3,0
	c-0.8-0.3-1.5-0.5-2.1-1c-1-1.5-2.6-1.8-4.1-2.1c-1.8-0.5-3.8-0.5-5.9-0.8c-5.1-0.5-10-2.6-15.4-2.6c-0.3,0-0.3,0-0.5-0.3
	c-4.4-1.5-7.4-4.6-10.3-8.2c-2.1-2.6-4.1-4.4-6.7-5.9c-2.3-1.5-4.6-2.6-5.9-4.9c-0.8-1-1.5-2.1-2.6-2.8c-0.8-0.8-1.5-1.3-2.3-2.1
	c-2.1-2.3-3.1-4.6-1.8-7.7c0.8-2.1,1.8-3.8,2.3-5.9c0.5-2.6,1.8-4.6,2.6-6.9c2.1-5.4,1-11,1.8-16.7c0.3-1,0.3-2.6-1-3.6
	c-1.3-1-2.3-2.3-2.6-4.1c-0.8-3.8-1.8-7.7-2.8-11.5c-0.8-2.8-1.5-5.9-1.8-9c-0.5-3.3-0.8-6.9-1.8-10.3c-1-2.8-1.3-5.9-0.5-9
	c0.8-2.6,0.8-4.9,0.3-7.4c-0.3-2.1-1.5-3.8-0.3-6.2v-0.5c-1.3-2.8-1-5.6-1-8.5c0-0.5,0.3-1-0.3-1.3c0-1.5,0-3.3,0-4.9
	c0.5-1.8,1.5-3.6,0.8-5.6c-0.5-1-0.5-2.6-0.3-3.6c0.3-1.3,0.5-2.3,0.3-3.6c-0.5-1.8-0.3-3.8-0.3-5.6c0-1,0.5-2.1,1.3-2.8
	c0.5-0.5,0.8-0.8,0.8-1.3c0-1.3,0.3-2.6-0.3-4.1c-0.3-0.8-0.3-1.8,0.5-2.3c0.8-0.8,0.8-1.5,0.8-2.6c-0.3-2.1,0.5-3.6,1.3-5.4
	c0.5-1.5,1-3.1,3.1-3.3c0.5,0,0.5-0.5,0.5-1c-0.3-1,0.8-1.8,1.5-1.8c1.8,0,2.3-0.8,3.1-2.1c0.3-0.5,1-0.8,1.5-1.3
	c1.8-2.1,4.9-2.1,6.9-3.8c0.3-0.3,1-0.3,1.5-0.5c0.8,0,1.5,0,1.8-0.8c0.8-1.8,2.3-2.1,4.1-2.1c1.3,0,2.6,0.3,3.8-0.3
	c1.5-0.8,3.6-0.8,5.1-1.8c0.3-0.3,1,0,1.3,0c1,0.5,1.8,0.8,3.1,0c0.3-0.3,1.3,0,1.8,0C89.2,1,90.8,0.8,92.1,0c1.3,0,2.6,0,3.8,0
	c0.3,0.5,1,0.3,1.3,1c0,0.5,0.8,0.5,1,0.3C99,0.5,100,0.5,100.5,0c2.3,0,4.4,0,6.7,0c1.8,1.8,4.6,1.5,6.7,1.3c2.1-0.3,3.6,0,5.1,1
	c1,0.5,1.8,0.8,2.8,0c0.5-0.3,0.8-0.3,1.3,0c2.8,0.5,4.9,2.3,7.4,3.3c0.8,0.3,1.5,1,2.6,0.3c0.8-0.5,3.8,0.3,4.4,0.8
	c1.3,1.5,2.6,3.1,3.8,4.6c1.3,1.5,2.8,2.8,3.3,5.1c0.3,1,1,1.8,1.8,2.3c2.1,1.3,2.8,3.3,3.6,5.4c1.3,2.8,1,6.2,2.3,9.2
	c1,2.3,1.5,4.9,1.8,7.4c0.3,2.3-0.3,4.6,0.5,6.9c0.5,1.5,0.3,3.1,0,4.6c-0.3,1-0.3,1.8,0,2.8c0.3,1.5,0.8,3.1,0.3,4.6
	c-1.3,3.1-2.1,6.4-4.1,9.2c-1,1.5-0.8,2.3,1.3,2.8C153.1,73.3,155.4,73.6,156.4,75.9z M119.2,77.2c-1,0-1.8,0-2.6,0
	c-0.5,0-1,0-1.5-0.5c-0.3-0.5,0.5-0.5,0.5-1c0-0.3,0.8-0.5,0.5-1c-0.5-0.5-1.3-0.8-2.1-0.8c0,0-0.5,0.3-0.3,0.5c0.3,1-0.3,1.5-1,2.1
	c-2.1,2.1-4.4,1-6.7,0.8c-0.5,0-0.5-0.5-0.5-1c0-0.5,0.3-1-0.5-1c-0.8,0-1,0.5-0.8,1c0,0.8-0.3,1-0.8,1.3c-0.5,0.3-1,0-1.5-0.5
	c-0.3-0.3,0-1-0.8-0.5c-0.3,0.3-0.5,0.5-0.5,1.3c0.3,0.8,0.3,1.5-0.3,2.3c-0.3,0.5-0.8,0.8-1,0.8c-0.5,0-0.5-0.5-0.5-1
	c-0.3-0.8-0.5-1.5-0.8-2.1c-0.3-1-0.5-2.3,0.3-2.8c1.3-1,1.5-1.5,0.3-2.6v-0.3c0.3-1.5,0.3-3.1,2.1-3.8c1-0.5,1-1.3,0-1.8
	c-0.8-0.5-1.5-1-2.3-1.3c-1.3-0.5-1.5-1.3-1.5-2.6c0.3-1.3,1.5-2.8,2.6-2.6c1.3,0.3,2.1,0.5,2.8-0.8c0-0.3,0.8,0,1,0
	c2.1,0,4.1,0.3,6.2-0.3c2.3-0.8,5.1-0.3,7.2-1.5c0.5-0.3,1-0.3,1.5,0c1.8,1.5,4.1,1.3,5.9,2.8h0.3c0.8-1.5,1.5-0.3,2.1,0
	c0.8,0.5,1,0.5,1.5-0.5c1-2.3,1.3-5.1,4.6-5.6c-1.3-1.3-1.8-2.3-1-3.8c0.5-0.5,0-1.3-0.3-2.1c-0.3-0.5-0.3-1.3,0-1.8
	c1.3-2.1,1-4.4,1-6.7c0-0.3,0-0.5-0.3-0.5c-2.3,0-1-1.3-0.8-2.1c0.3-1,0.5-2.6-0.3-3.1c-1-0.5-1.8-1.5-2.6-2.3
	c-1.8-2.1-4.1-2.8-6.7-3.6s-5.1-1.5-7.7,0c-0.8,0.5-1.5,0.8-2.3,0.5c-1.5-0.5-2.8,0-4.1,0.5c-0.3,0-0.5,0.3-0.8,0.3
	c-3.3,0.3-6.9,0.8-10.3,0.5c-2.1,0-3.8,1.3-5.9,0.5c0,0,0,0-0.3,0C89,31.8,87.2,31,85.6,31c-1.8-0.3-3.3-0.3-4.9,0.8
	c-0.8,0.5-1.8,1-2.8,0c-0.5-0.5-0.8-0.3-1,0c-2.8,2.1-6.2,1.8-9.5,1.3c-2.1-0.5-4.1-0.8-5.6,1.5c-1.3,2.1-2.3,4.1-3.3,6.4
	c-0.8,1.8,0.3,2.8,1.8,3.8c0.5,0.3,1.8,0.3,0.8,1.3c0,0.3-0.3,0.8,0.3,0.8c2.1,0.5,0.8,1.5,0.3,2.6c-0.8,1.3-1.3,2.8-1.8,4.4
	c-0.3,0.8,0,1.5,1,1.3c0.8,0,1.8-0.3,2.1,0c1.8,1.5,4.4,0.8,6.4,1.5c1.3,0.5,2.6-0.3,3.8,0c1.8,0.5,3.1,1.8,4.6,2.6
	c1.3,0.8,2.1,1.8,2.1,3.6c0,0.3,0,0.5,0.3,0.8c2.1,2.3,3.1,5.1,4.9,7.7c0.3,0.5,0.3,0.8,0,1c-0.8,0.5-0.8,1.3-0.5,2.1
	c0.3,1,0.5,2.1-0.8,2.8c-0.8,0.5-0.8,1.5-0.5,2.3c0.3,1.5,0.5,3.1,0.5,4.6c0,2.1-0.8,3.8-0.8,5.9c0,0.8-0.3,1.8-1.5,1.8
	c-0.5,0-0.8,0.5-0.8,1.3c0,1.3,0,2.6-0.5,3.8c-0.3,1,0,2.1,1,2.3c1.5,0.5,2.6,1.5,3.8,2.8c0.5,0.5,1.3,1.3,2.1,1.3
	c1.8,0,3.8,1.3,4.9-1.3c0-0.3,0.3-0.3,0.5-0.3c2.6-1.3,6.7,1.5,6.7,4.1c0,0.3-0.3,0.8-0.5,1c-0.8,0.5-1.5,1-2.6,1.5
	c-1.5,0.8-3.1-0.5-4.6,0.3c-0.3,0-0.5-0.3-0.8-0.5c-0.3-0.3,0-0.5,0.3-0.5c0.5-0.3,0.5-0.5,0.3-1c-0.3-0.5-0.8-0.8-1.3-0.5
	c-0.8,0.5-1.3,1.8-2.6,1.8v0.5c0.8,0.8,1,1.8,2.3,2.1c1.3,0.3,2.3,1.5,3.8,1.5c0.8,0,0.8,0.8,1,1c0.8,1.3,1.8,2.1,3.3,2.1
	c1,0,2.3,0.3,3.1,1.3c0.5,0.5,1.3,0.8,2.1,0.5c0.8-0.3,1.3,0,2.1,0.3c1.8,0.8,2.8,2.3,4.6,2.8c1,0.5,1.8,1.3,2.1,2.1
	c0.3,1,0.8,1.5,1.5,2.3c1,1,1,2.1,0,3.1c-0.5,0.5-1.3,1-1.5,1.8c-0.5,1-1.5,1-2.6,0.3c-1-0.8-2.3-1.8-3.8-1.3
	c-1,0.3-1.8,0.3-2.6-0.3c-0.3-0.3-0.8-0.5-1,0c-0.3,0.5-0.8,0.8-1,0.5c-0.5-0.3-0.5-0.8-0.5-1c-0.3-2.1-1-2.8-3.1-2.3
	c-2.1,0.3-4.1,0.5-6.2-0.3c-0.3-0.3-1-0.3-1.3,0c-2.1,1.5-4.6,1-6.9,1c-0.8,0-1.5,0.3-1.3,1.3c0,0.8,0.8,1.3,1.8,1
	c0.5,0,0.8-0.3,1.3,0c3.1,1.5,6.4,1.3,9.7,0.5c0.5,0,1-0.3,1.3,0c0.3,0.3,0.5,0.8,0.3,1.5c-0.5,1.3-1.5,2.6-1.5,4.1
	c0,0.5-0.8,1.3-1.3,1.8c-0.5,0.5-1-0.3-1.5-0.3c-0.5,0-1,0-1.5,0.5c-0.8,0.8-1.8,0.8-2.6,0.3c-0.5-0.3-1-0.3-1.5-0.5
	c-1.3-0.3-2.3,0-3.6,0.3c-1.5,0.3-3.1,0.8-4.1,2.1c-0.8,1-0.8,2.1-0.8,3.3c0,1,1,0.3,1.3,0.5s0.5,0.5,1,0.5c0.5,0.3,1,0.8,1.8,0.8
	c3.1-0.5,6.2,0.3,9,1.8c0.5,0.3,1.3,0.5,1.8,0c0.5-0.3,0.8-0.5,1,0c1.3,1,1.5,2.8,0.3,4.1c-0.5,0.5-1,1-0.5,1.5
	c0.5,0.8,0.8-0.3,1.3-0.3c1.8,0,3.3-1,4.6-2.3c1-1,2.3-0.5,3.3-0.8c3.6-1,6.9-3.1,10.8-3.8c2.8-0.5,5.4-1.3,7.7-2.8
	c3.8-2.6,7.9-5.1,9.2-10c0-0.3,0.3-0.3,0.3-0.5c1.8-2.6,3.1-5.1,4.4-8.2c1.3-3.3,2.3-6.7,2.6-10.3c0.3-2.6,0.3-5.1,1-7.7
	c0.5-1.8,0.3-3.3-0.5-4.9c-0.5-1-0.5-1.8,0.3-2.8c1-1.3,1.3-2.8,1.3-4.6c0-2.1-0.8-4.1-0.8-6.2c0-3.1-0.8-5.9-1.5-8.7
	c-0.3-1-0.5-2.3-1.5-2.8c-1.5-0.5-1.3-1.5-1.5-2.8c0-1,0-2.1,0.5-3.1c0.3-0.5,0-0.8,0-1.3c-0.8-2.1-4.6-4.4-7.2-4.4
	c-1.5,0-2.8-0.5-4.1-1.3c-1.8-1.3-1.8-1.5-4.4-0.8c1.3,0.3,1.5,1.3,2.1,2.1c0.3,0.8,0.8,1.3,1.5,1.3c0.8,0.3,1,0.3,0.8,1
	c-0.3,0.8-0.8,0.8-1.3,0.5c-2.8-1-5.6-2.6-8.7-1.8c-2.3,0.5-4.9,0.3-7.2,1.5c-0.8,0.3-1.3,0.5-1.5-0.5c0-0.5-0.3-0.5-0.8-0.3
	c-0.8,0.5,0,1.3-0.5,1.8c-0.3,0.3,0.3,0.5,0.8,0.5c1.5,0.8,1.8,1.3,0.5,2.6c-0.3,0.3-0.8,0.3-0.8,1c1.5-0.8,2.8-0.5,4.4-0.5
	c1,0,2.3,0.5,3.3-0.3c1.5,1.3,3.6,1,5.4,1.3c1,0,2.1,1.3,3.1,1.8s2.6,1.8,3.3,1.3c2.1-1,1.3,1.8,2.3,1.5h0.3c0.8,0,0.8,0.5,0.8,1
	c-0.3,0.5-0.5,1-1.3,0.8c-0.3,0-0.5-0.3-0.8-0.3c-1.3-0.5-2.3-0.8-3.1,0.8c-1.5,3.1-3.8,4.9-7.2,5.9c-1.8,0.5-3.8,0.8-5.9,1.3
	c-1.8,0.5-3.1-0.3-4.4-1.5c-0.5-0.5-0.8-1,0-1.8c1.3-1,2.3-0.3,3.3,0c2.6,0.8,4.6,0.8,6.9-1c0.5-0.5,1-0.5,1.5-0.8
	C117.2,80,118.2,78.7,119.2,77.2z M63.3,75.4c0,0.8,0.5,1,1,1c0.5,0,1.3-0.3,1.3,0.3c0.3,0.5-0.8,0.5-1,1c-0.3,0.3-1,0.3-0.8,0.8
	c0.5,1-0.3,1-1,1c-0.8,0-1.5,0-2.3-0.3C60,79,59.2,78.7,59,79.5c-0.3,0.8,0.8,0.8,1.3,1c0.3,0,0.5,0,0.8,0c0.5,0.5,1.8-0.3,2.1,0.5
	c0.8,1.3,2.1,1.8,3.1,2.3c0.5,0.3,1.5,0.5,1.8,0c1-1.3,2.6-1,3.6-2.1c0.5-0.5,1.3-0.3,1.8,0.5c0.5,0.8,0.3,1,0,1.5
	c-1.5,2.1-3.6,2.3-5.9,2.3c-1.8-0.3-3.6-0.8-5.4-0.8c-2.6,0-4.1-1.5-5.4-3.3c-0.8-1-1.8-2.1-3.1-1.8c-1,0-2.3,0.3-3.6,0.5
	c-0.3,0.3-0.5,0.5-0.5,1c0,1.3-0.5,2.3-1.3,3.3c-0.8,1.3-1.5,2.6-1.5,4.4c0,0.5,0,1,0.5,1c0.5,0.3,0.8,0,1.3-0.3
	c0.3-0.3,0.5-0.8,1-0.5c0.5,0.3,0.3,0.8,0.3,1c0,1.3,0.5,2.6,1.5,3.3c0.8,0.5,1,1,1.3,1.8c0.3,1.3,0,2.8,1.8,3.6
	c1.3,0.5,2.1,1.5,2.8,2.8c1,1.8,1.3,3.8,1.5,5.6c0.5,2.6,1,5.1-0.5,7.7c-1.3,2.1-0.8,4.4,0,6.7c0.3,0.3,0.3,0.8,1,0.5
	c1.8-0.5,2.8-1.5,3.6-2.8c1-1.5,2.6-2.8,4.4-3.3c1.8-0.3,3.3-1.5,5.1-2.1c1.5-0.5,2.8-1.3,2.8-2.8c0.3-1.3-0.5-2.1-1.5-2.6
	c-1-0.8-1.8-1.8-1.3-3.3c0.8-1.8,0.5-3.6-0.3-5.4c-0.5-1.3-0.3-2.3,0.5-3.1c0.8-0.8,1-1.8,1.5-2.6c0.3-0.3,0.3-0.8,0.5-1
	c1.5-1.3,2.8-3.1,3.3-5.1c0.5-1.5,0.3-3.1,0-4.6c-0.3-0.8-0.3-1.5,0-2.3c1-1.5,1.3-3.3,0.5-5.1c-0.8-1.8-0.5-1.8-2.3-2.1
	c-0.3,0.8,0.3,1,0.5,1.5c0.5,0.3,0.8,0.8,0.5,1.3c0,0.3-0.5,0.5-0.8,0.5c-0.5,0-1-0.3-1.3-0.8c0-1-0.8-1.3-1.8-1.3
	c-1.5,0-2.1-0.5-2.1-2.1c0-0.5,0.3-1-0.5-1c-0.8,0-0.8,0.3-1,0.8c-0.5,1.8-1.5,2.6-3.6,2.8C65.9,75.9,64.6,75.6,63.3,75.4z
	 M134.4,153.3c-0.5,1.3-1.5,2.3-2.3,3.3c-1.5,2.3-3.1,4.6-4.6,6.9c-2.1,3.1-5.1,5.6-6.9,9c-0.8,1-1.3,2.6-2.8,2.8
	c-1.5,0.3-3.1,1-4.6,1.5c-0.3,0-0.5,0.3-0.5,0.5c-0.3,1.8-1,3.6-1.3,5.6c0,1.8,0,3.6-1.3,5.1c-0.5,0.5-0.3,1,0,1.3
	c0.3,0.3,0.5,0.5,0.3,0.8c-0.5,0.5-0.8,0.8-0.3,1.5c0.5,0.5,1,0.5,1.5,0.3c2.8-1.3,5.9-2.6,9-3.6c2.1-0.8,3.8-1.5,5.1-3.3
	c1.8-2.6,3.8-4.9,5.9-7.2c1.5-1.8,2.6-3.8,4.1-5.6c1.8-2.3,1-5.1-0.8-7.9c-0.5-0.5-1-1-0.8-1.8C134.9,159.5,134.4,156.4,134.4,153.3
	z M132.3,143.8c0,1-1,1.3-1.3,2.3c-1.8,4.1-4.4,7.9-8.2,10.3c-2.1,1.3-4.1,2.1-5.9,3.3c-0.5,0.5-1.3,0.8-1.8,0.5
	c-1.3-0.3-2.1,0.5-2.8,1.3c-2.6,3.3-4.6,6.9-4.1,11.3c0,0.5,0.3,1.3-0.3,1.8c-0.5,0.8-0.8,1.5-0.5,2.3c0,0.8-0.3,1.3-0.5,1.8
	c-1.5,1.8-1.8,3.8-1,6.2c0.3,1,0.8,2.1,0.3,3.1c-1.3-0.5-2.6-0.8-3.3-2.3c-0.3,0.8-0.5,1,0,1.5c0.8,1,1.8,2.1,2.6,2.8s1,0.5,1.3-0.5
	c0.5-2.3,1-4.9,1.8-7.2c0.8-2.6,1.5-5.1,1.5-7.7c-0.3-3.1,1-5.6,2.1-8.2c0.3-0.5,1-0.5,1.3-0.5c0.5,0,0.3,0.5,0.3,1
	c0,1.3,0,2.6-0.8,3.8c-0.5,1-1.3,2.1-1,3.8c1.3-3.6,3.3-6.4,4.6-9.7c0.3-0.5,0.5-1.3,1.3-1s1,1,0.8,1.8c-0.3,0.5-0.5,1-0.8,1.5
	c-0.5,1.3-1.5,2.3-1.8,3.6c-0.3,0.5-1,1.3-0.3,1.8c0.8,0.3,1.3-0.5,1.8-1c0-0.3,0.3-0.3,0.3-0.5c1.5-2.1,2.8-4.4,5.4-5.4
	c0.8-0.3,1.3-1.3,1.8-2.1c3.3-4.6,6.2-9.5,9.7-13.8c0.8-1,0.8-2.8,0-3.1C132.8,145.9,132.8,144.9,132.3,143.8z M110,155.9
	c0.5,1.5,1.3,2.6,2.6,2.3c1.5-0.3,2.8-0.8,4.1-1c2.8-0.8,4.4-4.1,7.2-4.4l0,0c1.8-2.6,3.8-5.1,4.4-8.5c0-0.3,0.3-0.5,0.3-0.5
	c0.3-0.3,0.5-0.8,0.3-1.3c-0.3-1-0.3-2.1,0-3.1c0.3-1-0.5-1-1-1s-1,0.3-1.3,0.5c-1.5,1.3-3.1,2.6-4.6,3.8c-1.3,1-2.6,1.8-4.4,2.3
	c-3.1,0.8-6.4,1.5-9.2,3.3c-1.8,1-1.8,1.5-0.5,3.1c0.5,0.5,0.8,1,0.3,1.5c-0.3,0.3-0.8,0.5-0.5,0.8c0.3,0.5,0.5,0.5,1,0.5
	c1.5,0,2.3,1,3.3,1.8c0.5,0.5,0.3,0.8,0,1C111.3,157.4,110.8,156.4,110,155.9z M142.3,83.6c0,0.8,0,1.3,0,2.1c0,0.5,0,1.3,0.8,1.3
	c0.5,0,1.3-0.3,1.5-1.3c0-1.3,1.8-2.8,3.1-2.8c0.5,0,0.8,0.3,0.8,0.5c0.5,1.3,1,2.6,0.3,3.6c-1,1.3-0.5,2.6,0,3.6
	c1,1.8,0.8,3.3,0.5,5.1c-0.3,1.3-1.3,2.1-2.6,2.1c-1.5,0-2.1,0.5-1.8,1.8c0,0.5-0.3,1-1,1c-0.5,0-1-0.5-1-1c-0.3-0.5-0.3-1-0.3-1.5
	c0-0.5-0.3-0.5-0.5-0.5s-0.5,0-0.5,0.3c0,1-0.5,2.1-0.3,2.8c0.3,1.3,1,2.3,0,3.6c0,0,0,0.3,0,0.5c0.3,0.8,0.5,1.5,1.5,1.5
	c1.3,0,2.1-0.3,2.8-1.5c1-2.1,2.1-4.1,3.3-6.2c1.3-2.3,1.8-4.6,1.8-7.4c0-1.5,0-3.1,0.8-4.4c1.3-2.6,0.8-5.1,0-7.7
	c-0.3-0.8-0.5-1.5-1.3-1.8c-2.1-1-5.6,0-6.9,2.1C142.3,80.8,142.3,82.1,142.3,83.6z M97.7,187.7c0,0.8,1,1.3,0.3,2.3
	c-0.8,0.8-1.5,1-2.6,0.5c-1-0.5-2.3-0.8-3.6-0.5c-0.8,0-1.5-0.3-2.1-0.8c-1.8-1.8-3.6-3.8-5.9-5.4c-1.5-0.8-2.6-2.1-4.4-1.8
	c-0.3,0-0.5,0-0.8,0.3c0,0.3,0.3,0.5,0.5,0.5c1.3,1.3,2.8,2.1,4.4,2.8c1.5,0.8,3.1,1.5,3.8,3.3c-3.1-1-5.9-2.3-8.7-3.1
	c-2.6-0.8-4.9-2.3-7.2-3.1c-0.5-0.3-0.8-0.3-1,0.3c-0.3,0.3,0,0.8,0.3,1c1.5,1.8,3.3,3.3,5.4,4.6c0.5,0.3,1,0.3,1.5-0.3
	c1.3-0.8,2.6-0.8,3.8,0c2.3,1.5,4.6,2.3,7.4,2.8c4.4,1,9.2,1.3,13.6,2.6c0.5,0.3,1,0,1-0.5c0.3-0.8,0.8-1.3,1.5-1.8
	c-1.3-0.8-2.3-1.3-3.6-2.1c-0.5-0.3-1.5-0.5-1.5-1.3C99.5,187.2,98.7,187.4,97.7,187.7z M78.2,163.3c0.8,1.5,1.3,3.1,1.8,4.6
	c0.8,2.3,1.8,4.1,3.8,5.4c1.5,1,2.8,2.3,3.8,3.8c0.5,1.3,0.8,2.6,1.8,3.6c1.5,2.1,4.1,3.3,5.9,5.4c0-0.8,0-1.3,0-2.1
	c-0.5-3.1-1.8-5.6-3.3-8.2c-1.3-1.8-2.3-3.8-4.4-4.9c-1.3-0.8-2.3-1.8-3.3-3.1C82.6,166.2,81.3,164.1,78.2,163.3z M61.5,68.2
	c-0.3,0.8,0.3,1.3,1.3,1.5c1.5,0.5,2.8,0,4.1,0s2.6,0.3,3.6-0.8c0.3-0.3,0.5-0.3,0.8,0c1,0.8,2.3,1,3.3,1.8c1.5,1,3.1,1.5,4.9,1
	c1-0.3,1.5-1.5,0.8-2.3c-0.8-0.8-1.5-1.5-2.6-2.3c-2.8-2.3-6.4-0.8-9.5-2.1l0,0c-1.5,1-3.1,0.5-4.6,0.8
	C62.1,65.9,61.5,66.7,61.5,68.2z M103.6,183.1c-0.3-1-0.5-2.1-0.5-3.1c-0.3-1.5-1.3-3.1-1.3-4.9c0.3-2.1-0.3-4.1-1-6.2
	c-1.3-3.1-3.3-4.1-6.4-2.8c-0.8,0.3-1.5,0.5-2.3,0.3c-2.1-0.8-4.4-1.5-6.2-3.1c-1.3-1.3-2.8-2.3-4.4-3.3c-0.3-0.3-1-0.8-1.3,0
	c-0.3,0.5,0.3,0.8,0.3,1.3c0.3,0.3,0.5,0.5,0.8,0.8c2.1,2.1,4.6,3.6,7.2,4.9c2.6,1.5,5.6,1.5,8.2,2.8c1.8,1,3.1,2.1,3.6,4.1
	c0.8,2.6,1.5,5.4,2.3,7.9C102.8,182.6,102.8,182.8,103.6,183.1z M101.8,157.2c-0.8,0-1.3,0-1.8,0c-1.3,0-1.3,1.3-1.8,1.8
	c-0.5,0.8,0.3,0.8,0.8,1.3c1.3,1.3,2.8,2.6,4.1,3.8c1,1,2.3,0.5,3.3-0.3c1.3-1,0-2.1,0-3.1c0-0.3-0.5-0.5-0.8-0.3
	c-0.5,0.5-1,0-1.3-0.3c-0.3-0.5,0.5-0.5,0.8-0.8c0.3-0.3,0.8-0.5,0.8-1c0-0.5-0.5-0.8-1-0.8C103.8,157.2,102.8,156.9,101.8,157.2z
	 M60.8,142.8c-0.3,0.5,0,0.8,0.3,1c2.3,3.6,5.9,5.6,9,8.2c0.5,0.5,1,0.8,1.3,1.3c1.5,2.3,3.8,3.8,6.2,5.1c0.5-1.5-0.8-2.3-1.5-2.8
	c-3.1-2.6-6.2-5.1-9.2-7.4C64.6,146.7,62.6,144.9,60.8,142.8z M74.6,99.5c0.3,0.3,0.3,0.8,0.3,1.3c0,0.8,0.3,1.5,1.5,1.3
	c1.3-0.3,2.3-1.3,2.1-2.1c-0.3-0.8-0.8-1.5,0-2.6c0.3-0.3-0.3-0.5-0.5-0.5C75.6,96.2,74.9,97.2,74.6,99.5z M60.3,142.3
	C60,142.6,60,142.6,60.3,142.3c0,0.3,0,0.5,0,0.5s0.3-0.3,0-0.3C60.3,142.6,60.3,142.6,60.3,142.3z"/>
</svg>
